inDegrees=no
num_controls=7
num_derivatives=13
num_iterations=129
num_multipliers=7
num_parameters=0
num_slacks=7
num_states=26
objective=0.478779
objective_accelerations=0.010831
objective_balance=0.000375
objective_effort=0.007668
objective_height=0.450834
objective_ligament=0.009070
solver_duration=1683.813663
status=Solve_Succeeded
success=true
DataType=double
version=3
OpenSimVersion=4.5
endheader
time	/jointset/ground_pelvis/pelvis_tilt/value	/jointset/ground_pelvis/pelvis_tx/value	/jointset/ground_pelvis/pelvis_ty/value	/jointset/hip_l/hip_flexion_l/value	/jointset/hip_l/hip_adduction_l/value	/jointset/hip_l/hip_rotation_l/value	/jointset/back/lumbar_extension/value	/jointset/patellofemoral_l/patellar_flexion_l/value	/jointset/knee_l/knee_flexion_l/value	/jointset/knee_l/knee_adduction_l/value	/jointset/knee_l/knee_rotation_l/value	/jointset/ankle_l/ankle_angle_l/value	/jointset/subtalar_l/subtalar_angle_l/value	/jointset/ground_pelvis/pelvis_tilt/speed	/jointset/ground_pelvis/pelvis_tx/speed	/jointset/ground_pelvis/pelvis_ty/speed	/jointset/hip_l/hip_flexion_l/speed	/jointset/hip_l/hip_adduction_l/speed	/jointset/hip_l/hip_rotation_l/speed	/jointset/back/lumbar_extension/speed	/jointset/patellofemoral_l/patellar_flexion_l/speed	/jointset/knee_l/knee_flexion_l/speed	/jointset/knee_l/knee_adduction_l/speed	/jointset/knee_l/knee_rotation_l/speed	/jointset/ankle_l/ankle_angle_l/speed	/jointset/subtalar_l/subtalar_angle_l/speed	/forceset/tau_hip_flexion_l	/forceset/tau_hip_adduction_l	/forceset/tau_hip_rotation_l	/forceset/tau_knee_flexion_l	/forceset/tau_ankle_angle_l	/forceset/tau_subtalar_angle_l	/forceset/tau_lumbar_extension	lambda_cid13_p0	lambda_cid13_p1	lambda_cid13_p2	lambda_cid13_p3	lambda_cid13_p4	lambda_cid13_p5	lambda_cid14_p0	/jointset/ground_pelvis/pelvis_tilt/accel	/jointset/ground_pelvis/pelvis_tx/accel	/jointset/ground_pelvis/pelvis_ty/accel	/jointset/hip_l/hip_flexion_l/accel	/jointset/hip_l/hip_adduction_l/accel	/jointset/hip_l/hip_rotation_l/accel	/jointset/back/lumbar_extension/accel	/jointset/patellofemoral_l/patellar_flexion_l/accel	/jointset/knee_l/knee_flexion_l/accel	/jointset/knee_l/knee_adduction_l/accel	/jointset/knee_l/knee_rotation_l/accel	/jointset/ankle_l/ankle_angle_l/accel	/jointset/subtalar_l/subtalar_angle_l/accel	gamma_cid13_p0	gamma_cid13_p1	gamma_cid13_p2	gamma_cid13_p3	gamma_cid13_p4	gamma_cid13_p5	gamma_cid14_p0
1.5	0.03008938821361676	0.1779110198641428	0.8885493126907552	0.1684455538034332	-0.3367666471559251	-0.2263007911310317	-0.2414593439014818	0.3883325174649442	0.388332517464838	-0.04541089628256519	-0.1738912386152666	0.2833387235717784	0.1897081942576304	-0.4479615332832883	-0.01953226996684922	0.07750611022620231	-0.03364184086683722	0.1205822824242766	-0.2909325387217079	0.5732838801006835	-0.9943938556489752	-0.994393855648929	-0.02899635437504487	0.01166836228373768	-0.5598262723636611	-0.08936625658933815	0.02652584310346925	0.02430622123864883	0.0005610612921499679	-0.1249554535022419	-0.07284720053924071	-0.007328760716270625	0.02445117714846436	-49.88312120485035	7.478272942767004	3.596903940101766	6.57633534664283	-455.7337620152032	-62.96641142463461	-24.43729001674068	-0.2564397273677496	-0.1741859377061965	-0.1520738279419885	0.124768011508407	0.1335739086672872	-0.0421779386913129	0.2100160072730029	-0.6906502783540401	-0.690650278354042	-0.1590364750660084	0.1327012352065377	-0.5529970081382328	0.003877959984247586	-2.15362905592916e-08	-3.791873753146361e-08	1.123784586617659e-07	1.264954960560516e-09	-4.13120913211637e-08	-1.504692614689192e-07	-1.306430733920302e-08
1.51	0.02559738064924165	0.177707043795645	0.8893165509244818	0.1681157013901878	-0.3355542326963514	-0.229212010522945	-0.2357165883117931	0.3783556028463606	0.3783556028462139	-0.04570852328939785	-0.173768026725708	0.2777137343003487	0.1888150322143886	-0.4503826544060782	-0.02125725101616681	0.07592316640793863	-0.03232402939617587	0.121885013097114	-0.2912712149611305	0.5751914220539156	-1.000852366710076	-1.000852366710099	-0.0305256580462924	0.01297766465646183	-0.5650893137951803	-0.08925021155661651	0.02629523861963066	0.023301216993028	0.0004659020804515439	-0.1225292512826091	-0.07133026369929446	-0.007682071508851955	0.02398411133770444	-49.365354021321	7.458751667765497	3.694030243058693	6.297525869941254	-455.0694801891106	-63.07629568145516	-24.58644195687918	-0.2263516324701064	-0.1708003113754679	-0.1641668808654757	0.1359770125963484	0.1262646602427739	-0.02370804416603055	0.1697509218744555	-0.6029436127762874	-0.6029436127866894	-0.1493626677068062	0.1306086790018879	-0.5006216696740641	0.0178521022446106	-2.036257321254598e-08	-3.941682701601067e-08	1.121655623268974e-07	3.300310048202766e-10	-3.617399041338436e-08	-1.495648955707456e-07	-1.336367584419646e-08
1.52	0.02108288120809138	0.1774859886920878	0.8900674072756065	0.167799164951199	-0.3343292625273192	-0.232125415792772	-0.2299570317760668	0.3683182046986093	0.3683182046984194	-0.04602134040385406	-0.1736316090242812	0.2720385818228008	0.1879235074869398	-0.4524599086382881	-0.02294807697871981	0.07422973370579825	-0.03097864601546026	0.1230934243159842	-0.2913697143044849	0.5766440693081933	-1.006490561482706	-1.006490561482798	-0.03203437589964738	0.01430952465704738	-0.569858913587311	-0.08903879343075546	0.02606463413578812	0.02229621274740609	0.0003707428687411406	-0.1201030490629779	-0.06981332685934903	-0.008035382301434907	0.02351704552694189	-48.85144480846241	7.441481857809998	3.788997800326014	6.02986547638494	-454.4559654915113	-63.19214361001025	-24.72783149408324	-0.1876663492517826	-0.1673549203532775	-0.1741716047173258	0.1302823935192569	0.1147100178738708	0.005857440522323077	0.1190370674821573	-0.526587020659975	-0.526587020660001	-0.1549193114875023	0.1372127607788198	-0.4543086802604747	0.02295257861212544	-1.936136311497105e-08	-3.923664636643489e-08	1.114500211770946e-07	-3.624454436562222e-10	-3.050326843670606e-08	-1.474664451651186e-07	-1.356929192913842e-08
1.53	0.0165494259817273	0.1772482047862796	0.8908008101588138	0.1674960960344012	-0.3330926526079758	-0.2350385970921842	-0.2241853423273097	0.3582285011452049	0.358228501145096	-0.04634907709307068	-0.1734817173831506	0.2663182119216506	0.1870346023527982	-0.454168412636711	-0.0246023425676072	0.07243480233943077	-0.02963348431860414	0.1242149789102894	-0.2912249124943611	0.5776107056340588	-1.011308220568172	-1.011308220568181	-0.03350154305206244	0.01567522624419704	-0.5741286171707239	-0.08872290678288663	0.02584605004320546	0.02130031239054354	0.0002708163835072985	-0.1177082465268257	-0.06819421598112207	-0.008404097253180061	0.02304489924702427	-48.30635760103108	7.431770317521725	3.875532736461863	5.731392082205778	-453.8430431161017	-63.2993937090578	-24.8615757889785	-0.1530362764768761	-0.1635083418776476	-0.184564177601857	0.1368782887987714	0.1088226074154745	0.02502241182908825	0.07300969376190575	-0.438063311622485	-0.4380633116099631	-0.1408957276951922	0.1372285848663896	-0.4003375964683433	0.03879859295802288	-1.854344196963998e-08	-3.727330369935362e-08	1.102004199114243e-07	-7.973214156649995e-10	-2.426663657432263e-08	-1.440992799703226e-07	-1.367529606777566e-08
1.54	0.01200076694511096	0.1769940690318382	0.8915157816733565	0.1672065277807777	-0.3318452382572478	-0.2379490842013807	-0.2184064799595694	0.3480948794091219	0.34809487940909	-0.04669114151592789	-0.1733179727807089	0.260557737704849	0.1861494344621521	-0.455500670688707	-0.02621844670533974	0.07054345997284778	-0.02827851338054829	0.1252543105928603	-0.2908308762613698	0.578078653104851	-1.015274198018939	-1.015274198018865	-0.0348999226275452	0.01708011691868061	-0.5778797767176026	-0.08829134473166748	0.02562746595061937	0.02030441203367811	0.0001708898982504728	-0.115313443990675	-0.06657510510289653	-0.008772812204929283	0.02257275296710524	-47.76439861099377	7.424331033063838	3.959735951590017	5.442852412490061	-453.2687483318924	-63.41021729723737	-24.98785058181595	-0.1124171599664128	-0.1597226301223061	-0.1934538047604285	0.1322442417591994	0.09826543552700283	0.05570432509581039	0.01929929646750225	-0.3562506937200874	-0.3562506937200577	-0.1411617961010452	0.1450505782456018	-0.3505998729536279	0.04608765928218837	-1.540662812923428e-08	-2.788913098024542e-08	9.365823991480139e-08	-8.928697135105367e-10	-1.318015813550865e-08	-1.202736395159244e-07	-1.182130828208587e-08
1.55	0.00744069635644736	0.1767239883462144	0.8922113839643644	0.1669304460396295	-0.3305879263625731	-0.2408542957495052	-0.2126254088141343	0.3379258005540599	0.3379258005540414	-0.04704704304282077	-0.1731399660677381	0.2547623259790782	0.185269027176281	-0.4564587331426519	-0.02778942714696703	0.06856156005419951	-0.02692336709054565	0.1261893751839305	-0.2901690538656669	0.5780663421463826	-1.018387227769032	-1.018387227768978	-0.03627288572956924	0.01852160047664905	-0.5811098904566788	-0.08777568236983088	0.0254059078376996	0.01922240429614433	6.805194231057841e-05	-0.1129547136476929	-0.06487925132808815	-0.009086950018190208	0.02211644842369103	-47.19302412140207	7.389044453654492	4.047229335596235	5.114785683562724	-452.7092866504001	-63.58928796184579	-25.10592780626725	-0.07929551299889928	-0.1545463469735487	-0.2028712600551422	0.1393183608555818	0.08831388949666096	0.0777733298492336	-0.0218813673749811	-0.265676247126157	-0.2656762471292794	-0.13423397718692	0.1437595352190102	-0.2953164172967986	0.05646528772759681	-9.598046618416653e-09	-9.954871462063203e-09	5.949634964121239e-08	-5.974535172114928e-10	3.494187010931534e-09	-7.287627756676847e-08	-7.709068931410705e-09
1.56	0.002872686198266072	0.1764384457370162	0.8928867046212582	0.1666683494690281	-0.3293218264382676	-0.2437516186470643	-0.2068465377933581	0.3277302219752045	0.3277302219751957	-0.04741644828272146	-0.172947532061056	0.2489373932573342	0.1843942084666471	-0.4570885845922114	-0.02931083142021681	0.06648713315002726	-0.02548147927115114	0.1270119165189866	-0.2892531461482957	0.5776386281730751	-1.020574142778016	-1.020574142777983	-0.037600665228947	0.01996557566047919	-0.5837839759122425	-0.08717362948426637	0.02518434972477923	0.01814039655860798	-3.478601364680854e-05	-0.1105959833047113	-0.06318339755328074	-0.009401087831454607	0.02166014388027733	-46.62360798008163	7.356150508539658	4.132000328087156	4.793786103346303	-452.1681005896675	-63.76972884231613	-25.21505418188469	-0.04677495908936202	-0.1498073964468009	-0.2119592018652263	0.1495925476375739	0.07576078432418104	0.1065213894294825	-0.06378130650029833	-0.1710277454983238	-0.1710277454983319	-0.1321250755717892	0.1455489034179412	-0.2393942162511451	0.06336576402777357	-5.987207318107116e-09	6.388209979278272e-10	3.962664062745351e-08	-5.269345128201084e-10	1.547815851157057e-08	-4.462672836974074e-08	-5.417993916663491e-09
1.57	-0.00169977565297321	0.1761379439736815	0.8935408666284038	0.1664208305110411	-0.328048045342837	-0.2466385476445474	-0.2010742346568342	0.3175173262229254	0.3175173262229042	-0.04779886341141013	-0.1727406418434463	0.2430884899990877	0.1835258519772464	-0.457331154506911	-0.03078069407250414	0.06433392594002268	-0.02402819808580924	0.1277269094910591	-0.2880937453508775	0.5767341622266232	-1.021851461732282	-1.021851461732337	-0.03886921498085232	0.02141127990364025	-0.5859019712469227	-0.08648159633460076	0.02493959609751126	0.01708278231830142	-0.0001396142299167152	-0.1082304701255835	-0.06148904614896177	-0.009718459590977996	0.02122501109514011	-46.05779951985393	7.327294507784688	4.21384072065691	4.468934059549623	-451.670948115435	-63.94950731443923	-25.31502462599022	-0.002105356778414031	-0.144251795236076	-0.2186978067558808	0.1423113856584353	0.06675106162539293	0.1264812536880291	-0.116954774485265	-0.08305099958646429	-0.08305099959968526	-0.1222430895438233	0.1439084963722889	-0.1837972153732026	0.07452814839574709	-5.123545780932667e-09	2.056804635179957e-09	3.76221581884821e-08	-7.375369983132956e-10	2.159916295495822e-08	-4.031194511287306e-08	-5.403374321826196e-09
